<?xml version="1.0" encoding="UTF-8"?>
<svg version="1.1" xmlns="http://www.w3.org/2000/svg" width="256" height="256">
<path d="M0 0 C84.48 0 168.96 0 256 0 C256 84.48 256 168.96 256 256 C171.52 256 87.04 256 0 256 C0 171.52 0 87.04 0 0 Z " fill="#353535" transform="translate(0,0)"/>
<path d="M0 0 C84.48 0 168.96 0 256 0 C256 42.24 256 84.48 256 128 C251.38 128 246.76 128 242 128 C242 90.05 242 52.1 242 13 C225.54125 13.165 209.0825 13.33 192.125 13.5 C132.7450779 14.05658878 73.38473945 14.07441697 14 14 C14 51.29 14 88.58 14 127 C9.38 127 4.76 127 0 127 C0 85.09 0 43.18 0 0 Z " fill="#3390CB" transform="translate(0,0)"/>
<path d="M0 0 C7.87875 -0.0825 15.7575 -0.165 23.875 -0.25 C26.34210449 -0.28641602 28.80920898 -0.32283203 31.35107422 -0.36035156 C33.33560316 -0.37204851 35.32014181 -0.38223794 37.3046875 -0.390625 C38.81494507 -0.4213208 38.81494507 -0.4213208 40.35571289 -0.45263672 C50.70498119 -0.45767163 58.56276087 2.6662139 66.0859375 9.77734375 C71.55358177 16.12650617 73.3943094 24.00764155 73.2734375 32.21484375 C72.42372664 40.86975583 68.67660335 48.41293723 62 54 C54.86609641 58.53359008 48.38134589 60.14114096 39.9453125 60.09765625 C38.94516113 60.09515869 37.94500977 60.09266113 36.91455078 60.09008789 C35.03872314 60.07643188 35.03872314 60.07643188 33.125 60.0625 C27.123125 60.0315625 27.123125 60.0315625 21 60 C21 71.22 21 82.44 21 94 C14.07 94 7.14 94 0 94 C0 62.98 0 31.96 0 0 Z " fill="#FCFCFC" transform="translate(141,28)"/>
<path d="M0 0 C4.69861221 3.09936586 8.63656758 6.552238 12.375 10.75 C9.53537299 17.12866955 3.8475275 21.60414584 -1.625 25.75 C-5.35520806 24.02197488 -8.32421681 21.73471824 -11.52734375 19.1875 C-16.06081779 16.08076174 -19.8556996 15.47511151 -25.3125 15.5 C-26.45074219 15.49484375 -27.58898437 15.4896875 -28.76171875 15.484375 C-31.75549917 15.4546551 -31.75549917 15.4546551 -33.625 17.75 C-34.29340854 20.12014192 -34.29340854 20.12014192 -33.625 22.75 C-29.52605907 27.30437881 -24.73320662 29.07911307 -19.11328125 31.3046875 C10.32482733 43.50188814 10.32482733 43.50188814 16.75 57.8125 C18.34761774 65.32130336 16.98394248 71.09064185 13.375 77.75 C8.01981913 85.14247794 -1.40712191 90.77026183 -10.36328125 92.49609375 C-26.77224236 94.3382051 -41.76315165 90.37269697 -54.78515625 80.03515625 C-56.4310578 78.64448397 -58.03374603 77.20288406 -59.625 75.75 C-58.74929445 71.34214242 -56.31303513 68.44289817 -53.5625 65 C-53.09005859 64.39800781 -52.61761719 63.79601562 -52.13085938 63.17578125 C-50.96809599 61.69590057 -49.7973234 60.22231904 -48.625 58.75 C-45.38351799 59.34842745 -43.5737578 60.39553342 -41.0625 62.5 C-32.2041599 69.26633358 -23.83550961 72.19651737 -12.625 70.75 C-10.23396502 69.98764102 -8.70779225 69.1782004 -6.625 67.75 C-6.0386018 64.96276343 -6.0386018 64.96276343 -6.625 61.75 C-13.08326002 56.25957446 -20.83956115 53.35582776 -28.55664062 50.03125 C-39.52300911 45.17580538 -49.1481895 39.20575134 -55.78125 28.96484375 C-57.96760012 23.2256747 -57.93137829 14.88626848 -55.5625 9.19921875 C-54.06889132 7.10897834 -52.53797921 5.46268865 -50.625 3.75 C-49.72007813 2.92435547 -49.72007813 2.92435547 -48.796875 2.08203125 C-34.48632299 -9.69799632 -15.39173552 -9.24334994 0 0 Z " fill="#F9F9F9" transform="translate(105.625,137.25)"/>
<path d="M0 0 C6.94120233 3.7465067 12.75367821 8.10907894 18 14 C16.87563746 17.37308761 15.92657267 18.15123097 13.25 20.375 C10.00331159 23.12534216 6.96094821 25.94652216 4 29 C1.07235095 27.64026966 -1.34414908 26.05973777 -3.875 24.0625 C-10.16873737 19.33930994 -14.52460277 17.66786048 -22.4140625 17.6015625 C-25.38563894 18.05941869 -26.77607931 19.02666193 -29 21 C-29.12944997 23.83538907 -29.12944997 23.83538907 -28 27 C-23.76525627 30.88092702 -18.25802417 32.75796135 -12.9765625 34.77734375 C0.07154652 40.13700008 13.51405012 46.41296842 21.13671875 58.85546875 C23.21200303 64.01081295 22.87600317 70.27418432 21.1953125 75.50390625 C16.53417285 84.74582107 8.52022941 90.80732961 -1.140625 94.15234375 C-16.68837788 97.56718421 -31.30966661 95.09286864 -44.73046875 86.59375 C-48.03848675 84.27073564 -51.01547633 81.72499988 -54 79 C-53.5355261 73.96661957 -51.10063963 71.00967567 -48.0625 67.1875 C-47.60681641 66.59001953 -47.15113281 65.99253906 -46.68164062 65.37695312 C-45.50855732 63.87410116 -44.25943053 62.4312663 -43 61 C-42.34 61 -41.68 61 -41 61 C-40.360625 61.70125 -39.72125 62.4025 -39.0625 63.125 C-32.39523796 70.08990766 -22.44633511 74.00410095 -13 74.375 C-7.67863665 74.30881389 -4.95583617 73.51629882 -1 70 C-0.90361107 67.13994425 -0.90361107 67.13994425 -2 64 C-4.55835721 62.21252834 -6.77394162 60.93578033 -9.5625 59.625 C-10.32175781 59.24561279 -11.08101562 58.86622559 -11.86328125 58.4753418 C-14.23250398 57.29587878 -16.61457512 56.14628141 -19 55 C-47.92722833 40.85681247 -47.92722833 40.85681247 -51.6640625 30.0859375 C-52.67478205 23.81007426 -53.25826795 17.26486164 -49.9375 11.625 C-38.96576051 -3.1470068 -16.6209955 -7.87896437 0 0 Z " fill="#FAFAFA" transform="translate(99,29)"/>
<path d="M0 0 C4.62 0 9.24 0 14 0 C14 37.62 14 75.24 14 114 C51.95 114 89.9 114 129 114 C129 118.95 129 123.9 129 129 C86.43 129 43.86 129 0 129 C0 86.43 0 43.86 0 0 Z " fill="#F3BA38" transform="translate(0,127)"/>
<path d="M0 0 C4.62 0 9.24 0 14 0 C14 42.24 14 84.48 14 128 C-27.91 128 -69.82 128 -113 128 C-113 123.05 -113 118.1 -113 113 C-75.71 113 -38.42 113 0 113 C0 75.71 0 38.42 0 0 Z " fill="#9B353C" transform="translate(242,128)"/>
<path d="M0 0 C42.24 0 84.48 0 128 0 C128 42.24 128 84.48 128 128 C123.38 128 118.76 128 114 128 C114 90.05 114 52.1 114 13 C76.38 13 38.76 13 0 13 C0 8.71 0 4.42 0 0 Z " fill="#8A52FE" transform="translate(128,0)"/>
<path d="M0 0 C26.07 0 52.14 0 79 0 C79 6.6 79 13.2 79 20 C69.43 20 59.86 20 50 20 C50 44.42 50 68.84 50 94 C43.07 94 36.14 94 29 94 C29 69.58 29 45.16 29 20 C19.43 20 9.86 20 0 20 C0 13.4 0 6.8 0 0 Z " fill="#FBFBFB" transform="translate(135,133)"/>
<path d="M0 0 C3.70911942 -0.1082077 7.41506456 -0.18742278 11.125 -0.25 C12.17171875 -0.28351562 13.2184375 -0.31703125 14.296875 -0.3515625 C20.51622775 -0.43028848 24.31369769 -0.26027483 29 4 C30.57991444 7.15982889 30.34420735 9.50055861 30 13 C28.9149599 16.01317778 27.55460593 18.04668985 25 20 C20.70464 20.87741978 16.548637 20.65983247 12.1875 20.4375 C11.01767578 20.40591797 9.84785156 20.37433594 8.64257812 20.34179688 C5.76064279 20.25945587 2.88000017 20.13390407 0 20 C0 13.4 0 6.8 0 0 Z " fill="#3E3E3E" transform="translate(162,48)"/>
</svg>
